<svg width="25" height="25" viewBox="0 0 25 25" fill="none" xmlns="http://www.w3.org/2000/svg">
<path d="M23.0687 17.0133C21.4287 17.0133 19.842 16.7466 18.362 16.2666C17.8953 16.1066 17.3753 16.2266 17.0153 16.5866L14.922 19.2133C11.1487 17.4133 7.61534 14.0133 5.73534 10.1066L8.33534 7.89326C8.69534 7.51993 8.802 6.99993 8.65534 6.53326C8.162 5.05326 7.90867 3.46659 7.90867 1.82659C7.90867 1.10659 7.30867 0.506592 6.58867 0.506592H1.97534C1.25534 0.506592 0.388672 0.826592 0.388672 1.82659C0.388672 14.2133 10.6953 24.5066 23.0687 24.5066C24.0153 24.5066 24.3887 23.6666 24.3887 22.9333V18.3333C24.3887 17.6133 23.7887 17.0133 23.0687 17.0133Z" fill="white"/>
</svg>
