<svg width="301" height="322" viewBox="0 0 301 322" fill="none" xmlns="http://www.w3.org/2000/svg">
<path d="M144.418 41.0293H161.947V61.5015H144.418V41.0293Z" fill="#F58D79"/>
<path d="M158.369 46.5427C158.369 46.5427 147.756 50.8029 147.868 56.15C147.981 61.4972 145.872 60.8781 145.872 60.8781L144.418 58.2899V43.7887L158.865 44.9585L158.374 46.5476L158.369 46.5427Z" fill="#F37260"/>
<path d="M158.497 47.0004L157.909 62.1303L162.076 59.8735L161.948 44.9678L158.497 47.0004Z" fill="#F9B5A9"/>
<path d="M172.569 21.3761C173.997 19.2655 175.451 14.2303 170.741 8.14717C170.639 8.01557 170.557 7.87421 170.5 7.71823C169.973 6.2998 166.149 0.119141 151.522 0.119141C136.895 0.119141 133.859 7.38677 133.219 8.8637C133.153 9.01968 133.101 9.17078 132.989 9.30239C132.103 10.3309 127.454 14.4107 132.303 22.429C132.615 22.9457 133.199 23.2674 133.823 23.2674H169.221C169.814 23.2674 172.246 21.8538 172.569 21.3761Z" fill="#BCBEC0"/>
<path d="M132.32 22.2679C132.32 22.2679 132.883 23.3987 134.404 23.1063L134.675 11.3299C134.675 11.3299 141.244 13.1821 151.176 13.2455C151.176 13.2455 144.326 10.9887 143.604 5.53429C142.877 0.0847864 146.886 0.235891 146.886 0.235891C146.886 0.235891 135.991 1.70794 133.006 9.1413C133.006 9.1413 127.006 13.8207 132.32 22.2679Z" fill="#939598"/>
<path d="M168.65 22.7649C168.65 22.7649 171.87 19.4894 175.198 21.6682C178.787 24.0176 176.053 33.6396 168.419 32.3235L168.65 22.7649Z" fill="#F9B5A9"/>
<path d="M171.923 28.3409C171.405 28.3409 170.986 27.5553 170.986 26.5862C170.986 25.6171 171.405 24.8314 171.923 24.8314C172.44 24.8314 172.859 25.6171 172.859 26.5862C172.859 27.5553 172.44 28.3409 171.923 28.3409Z" fill="#F27386"/>
<path d="M162.99 9.69751C162.99 9.69751 163.349 19.1488 168.75 20.4162C168.75 20.4162 168.76 36.3309 167.875 39.1093C167.26 41.0249 159.012 49.3015 149.377 49.3015C139.261 49.3015 135.708 41.4879 134.786 38.1051C133.865 34.7224 133.604 19.4706 133.604 19.4706C133.604 19.4706 134.413 14.6645 134.413 11.0331C134.413 11.0331 138.083 12.8707 148.481 12.8707C158.879 12.8707 162.996 9.69751 162.996 9.69751H162.99Z" fill="#F8A38E"/>
<path d="M149.64 19.6116C153.433 19.2801 157.002 19.4507 160.744 19.9479C157.447 18.1249 153.049 17.9445 149.64 19.6116Z" fill="#3C1B4E"/>
<path d="M141.469 19.6118C139.349 17.9399 135.863 18.1544 133.892 19.9481C136.477 19.4656 138.807 19.2755 141.469 19.6118Z" fill="#3C1B4E"/>
<path d="M153.184 28.8094C152.076 28.8094 151.178 27.3363 151.178 25.5192C151.178 23.7021 152.076 22.229 153.184 22.229C154.293 22.229 155.191 23.7021 155.191 25.5192C155.191 27.3363 154.293 28.8094 153.184 28.8094Z" fill="#3C1B4E"/>
<path d="M153.756 27.1379C153.106 27.1379 152.579 26.2715 152.579 25.2028C152.579 24.1341 153.106 23.2677 153.756 23.2677C154.406 23.2677 154.934 24.1341 154.934 25.2028C154.934 26.2715 154.406 27.1379 153.756 27.1379Z" fill="white"/>
<path d="M138.284 28.8094C137.176 28.8094 136.277 27.3363 136.277 25.5192C136.277 23.7021 137.176 22.229 138.284 22.229C139.392 22.229 140.291 23.7021 140.291 25.5192C140.291 27.3363 139.392 28.8094 138.284 28.8094Z" fill="#3C1B4E"/>
<path d="M151.365 41.0294C151.365 41.0294 146.235 44.227 140.373 41.0294" stroke="#3C1B4E" stroke-width="2" stroke-miterlimit="10" stroke-linecap="round"/>
<path d="M145.182 23.9839L141.608 30.2133C141.132 31.0419 141.915 31.9388 143.292 32.1533L145.182 32.4457V23.9888V23.9839Z" fill="#F37260"/>
<path d="M138.862 26.7378C138.211 26.7378 137.684 25.8714 137.684 24.8027C137.684 23.7339 138.211 22.8676 138.862 22.8676C139.512 22.8676 140.039 23.7339 140.039 24.8027C140.039 25.8714 139.512 26.7378 138.862 26.7378Z" fill="white"/>
<path d="M157.308 24.6568C158.045 24.5252 158.798 24.4423 159.505 24.2327C159.73 24.1304 159.95 24.0085 160.145 23.8135L160.129 23.7648C159.586 23.6527 159.121 23.7989 158.655 24.0231C158.194 24.2035 157.738 24.3984 157.288 24.608L157.303 24.6568H157.308Z" fill="#F37260"/>
<path d="M157.581 25.3386C158.334 25.4751 159.081 25.6701 159.839 25.7237C160.095 25.7091 160.351 25.6749 160.617 25.5628V25.5141C160.146 25.2168 159.644 25.1875 159.117 25.2314C158.61 25.2363 158.098 25.2558 157.586 25.2899V25.3386H157.581Z" fill="#F37260"/>
<path d="M157.34 26.2411C157.99 26.5726 158.63 26.9577 159.311 27.2062C159.552 27.2599 159.803 27.294 160.079 27.255L160.1 27.2111C159.757 26.8066 159.301 26.6408 158.794 26.5433C158.323 26.4166 157.842 26.2996 157.361 26.1924L157.34 26.2363V26.2411Z" fill="#F37260"/>
<path d="M135.633 24.5647C135.305 24.282 135.003 23.9505 134.634 23.7409C134.542 23.7166 134.199 23.6337 134.117 23.7604C134.215 24.1065 134.45 24.2527 134.773 24.3307C135.044 24.4331 135.326 24.5257 135.607 24.6086L135.633 24.5647Z" fill="#F37260"/>
<path d="M135.464 25.2428C135.054 25.2184 134.629 25.1356 134.235 25.1941C134.148 25.2282 133.861 25.3695 133.877 25.5158C134.163 25.7254 134.419 25.7059 134.701 25.5743C134.962 25.4963 135.218 25.3988 135.469 25.2916L135.464 25.2428Z" fill="#F37260"/>
<path d="M135.577 26.1484C135.167 26.3337 134.717 26.4799 134.358 26.7334C134.297 26.8016 134.077 27.0843 134.169 27.2013C134.553 27.2452 134.788 27.0892 134.993 26.8308C135.208 26.6261 135.408 26.4117 135.607 26.1874L135.577 26.1484Z" fill="#F37260"/>
<path d="M145.182 23.9839L143.293 32.1533L145.182 32.4457H147.158L145.182 23.9839Z" fill="#F9B5A9"/>
<path d="M168.444 27.4591L168.746 20.4157C168.746 20.4157 164.016 20.3475 162.987 9.69704C162.987 9.69704 167.19 6.28501 170.733 8.14701C170.733 8.14701 176.247 13.9572 172.858 20.8934L171.516 21.1956C170.615 21.4003 169.97 22.1461 169.929 23.0284L169.796 26.1187L168.439 27.4591H168.444Z" fill="#E0E0E0"/>
<path d="M165.5 18.1052L165.06 28.3413C165.06 28.3413 163.509 29.8134 161.947 29.8767C161.947 29.8767 163.509 29.6282 163.724 30.6274C163.939 31.6266 164.845 43.1154 160.739 45.6745C160.739 45.6745 165.941 42.8279 167.871 39.1087C167.871 39.1087 168.818 28.6289 168.746 20.4157L165.5 18.1052Z" fill="#F9B5A9"/>
<path d="M187.182 155.176L186.926 162.391L186.306 179.743C186.306 179.743 184.202 191.442 170.86 191.442C157.518 191.442 157.16 183.716 157.16 183.716L153.479 183.92C153.479 183.92 151.723 191.442 139.088 191.442C126.452 191.442 124.169 181.332 124.169 181.332L123.201 154.177L187.182 155.181V155.176Z" fill="#414042"/>
<path d="M185.777 159.47C185.777 159.47 173.818 165.885 154.691 165.87C146.663 165.866 123.384 159.47 123.384 159.47H185.777Z" fill="#231F20"/>
<path d="M186.614 171.042L184.024 245.249C184.024 245.249 181.74 250.43 173.666 250.43C165.593 250.43 164.364 245.585 164.364 245.585L155.676 175.56C155.676 175.56 157.632 165.865 170.333 163.696C183.035 161.527 186.619 171.042 186.619 171.042H186.614Z" fill="#414042"/>
<path d="M157.153 183.715C157.153 183.715 159.309 186.259 163.763 186.596L168.232 234.559C168.232 234.559 163.778 237.24 163.778 240.915C163.778 240.915 163.778 244.591 163.778 240.915L157.153 183.715Z" fill="#231F20"/>
<path d="M123.755 171.379L126.346 245.586C126.346 245.586 128.629 250.767 136.703 250.767C144.777 250.767 146.005 245.922 146.005 245.922L153.695 183.945L154.693 175.897C154.693 175.897 152.738 166.202 140.036 164.033C127.334 161.864 123.75 171.379 123.75 171.379H123.755Z" fill="#414042"/>
<path d="M153.701 183.945C153.701 183.945 151.899 186.597 148.566 187.265L143.298 242.549L146.513 241.794L153.701 183.95V183.945Z" fill="#231F20"/>
<path d="M176.583 295.641H176.588C179.277 295.641 181.457 297.716 181.457 300.276V308.134C181.457 310.694 179.277 312.769 176.588 312.769H176.583C173.894 312.769 171.714 310.694 171.714 308.134V300.276C171.714 297.716 173.894 295.641 176.583 295.641Z" fill="#F8A38E"/>
<path d="M176.59 299.232C176.59 299.232 174.475 301.299 174.276 307.255H171.716L171.839 299.11L176.585 299.237L176.59 299.232Z" fill="#F6927F"/>
<path d="M184.172 240.911L182.969 300.066H171.142C171.142 300.066 163.376 264.147 163.78 240.911C163.78 240.911 164.446 233.302 173.968 233.302C184.172 233.302 184.172 240.911 184.172 240.911Z" fill="#414042"/>
<path d="M168.235 234.555L173.969 300.066H171.143C171.143 300.066 162.644 255.276 163.765 239.737C163.765 239.737 165.014 236.1 168.235 234.555Z" fill="#231F20"/>
<path d="M133.315 313.646H133.31C130.621 313.646 128.441 311.57 128.441 309.01V301.153C128.441 298.593 130.621 296.517 133.31 296.517H133.315C136.004 296.517 138.184 298.593 138.184 301.153V309.01C138.184 311.57 136.004 313.646 133.315 313.646Z" fill="#F8A38E"/>
<path d="M126.115 241.789L127.318 300.943H139.144C139.144 300.943 146.911 265.024 146.506 241.789C146.506 241.789 145.841 234.18 136.318 234.18C126.115 234.18 126.115 241.789 126.115 241.789Z" fill="#414042"/>
<path d="M143.85 236.704L135.393 300.943H139.145C139.145 300.943 146.866 265.984 146.507 241.788C146.507 241.788 146.036 238.439 143.85 236.704Z" fill="#231F20"/>
<path d="M133.318 301.07C133.318 301.07 131.204 303.137 131.004 309.093H128.444L128.567 300.948L133.313 301.075L133.318 301.07Z" fill="#F6927F"/>
<path d="M171.718 305.082L157.189 314.031C154.091 315.332 154.772 321.157 158.039 321.245L183.34 321.922C185.572 321.981 187.134 319.134 186.325 316.487L181.83 306.841C181.83 306.841 182.449 308.386 179.039 308.386C175.63 308.386 171.723 305.086 171.723 305.086L171.718 305.082Z" fill="#D1D3D4"/>
<path d="M186.389 316.737C186.389 316.737 184.987 320.709 182.483 320.753C179.98 320.797 160.935 320.753 159.312 318.706C157.689 316.659 157.55 313.812 160.402 312.052L157.279 313.768C153.403 315.898 154.182 321.318 158.656 321.377L183.988 321.923C183.988 321.923 187.49 320.539 186.389 316.737Z" fill="#A7A9AC"/>
<path d="M128.502 305.623L104.127 313.276C99.9801 314.577 100.897 320.402 105.264 320.49L139.135 321.167C142.12 321.226 144.214 318.379 143.134 315.732L139.012 305.628C139.012 305.628 137.937 307.631 133.376 307.631C128.814 307.631 128.507 305.628 128.507 305.628L128.502 305.623Z" fill="#D1D3D4"/>
<path d="M143.017 315.981C143.017 315.981 141.169 319.954 137.887 319.998C134.605 320.041 109.58 319.998 107.451 317.95C105.321 315.903 105.326 313.485 109.074 311.726L104.778 313.013C99.3719 314.607 100.821 321.167 106.585 320.621L139.863 321.167C139.863 321.167 144.461 319.783 143.022 315.981H143.017Z" fill="#A7A9AC"/>
<path d="M105.708 68.8005L72.8383 70.9018C72.8383 70.9018 68.5906 73.0675 68.773 78.9563C68.9554 84.8451 73.5525 85.9116 73.5525 85.9116L104.863 84.0085L105.708 68.8005Z" fill="#F8A38E"/>
<path d="M102.404 78.2254L69.0297 81.2589C69.0297 81.2589 66.5461 86.4006 73.4769 85.8961C76.249 85.6933 103.723 84.0491 103.723 84.0491L102.404 78.2254Z" fill="#F6927F"/>
<path d="M135.342 79.5152C133.099 83.2224 129.701 84.963 126.4 85.052L102.766 87.5972L100.418 84.0742L99.9284 68.4695L123.797 66.2213L125.158 66.0468L125.173 66.0439C131.528 65.6771 137.664 71.3488 135.347 79.5143L135.342 79.5152Z" fill="#E9F5F1"/>
<path d="M135.893 76.3721C135.893 76.3721 131.261 72.1118 126.898 69.8607C123.54 68.1311 100.033 71.4716 100.033 71.4716L99.9391 68.4882L125.212 66.0614C125.212 66.0614 135.718 65.8046 135.893 76.3721Z" fill="#C7E5DA"/>
<path d="M153.367 162.361C136.518 162.527 120.299 158.184 120.299 158.184C119.219 148.304 123.365 119.506 123.365 119.506C123.365 119.506 118.2 79.1369 122.06 69.9439C125.92 60.7509 144.423 56.4079 144.423 56.4079C146.071 60.4926 152.128 60.7119 152.128 60.7119H153.187H154.247C154.247 60.7119 160.304 60.4926 161.952 56.4079C161.952 56.4079 185.559 56.0326 189.419 65.2256C193.279 74.4186 191.262 90.0213 191.262 90.0213C191.262 90.0213 192.696 128.368 188.61 161.445C188.61 161.445 170.215 162.532 153.367 162.366" fill="#E9F5F1"/>
<path d="M150.422 93.5159V86.6772H165.023V100.428H157.682V93.5159H150.422Z" fill="#106888"/>
<path d="M150.418 100.428H157.76V107.418H150.418V100.428Z" fill="#8B4593"/>
<path d="M135.901 100.428H143.242V107.418H135.901V100.428Z" fill="#F3CD13"/>
<path fill-rule="evenodd" clip-rule="evenodd" d="M150.424 79.6151H135.899V86.6049H128.716V100.433H135.899V93.5947H143.241V86.6049H150.424V79.6151Z" fill="#189A73"/>
<path d="M147.488 59.518L119.566 69.4276L127.337 63.8318C127.337 63.8318 137.72 56.9931 144.411 56.4082C144.411 56.4082 145.062 58.3628 147.483 59.518H147.488Z" fill="#C7E5DA"/>
<path d="M123.358 119.507C126.747 148.075 123.194 157.098 138.025 161.441L120.291 158.18C120.291 158.18 120.45 124.61 123.358 119.502" fill="#C7E5DA"/>
<path d="M36.9732 71.4045C36.9732 71.4045 37.0892 70.1651 34.8266 68.7714C32.5641 67.3777 17.2781 57.1785 16.6868 60.2697C16.6868 60.2697 16.3228 61.0768 23.0274 64.8525C23.0274 64.8525 24.8585 66.5092 21.5796 65.9133C18.3007 65.3174 6.64372 62.1607 6.11645 64.1884C5.58918 66.216 18.6924 67.9908 18.4633 69.056C18.2342 70.1212 4.18427 67.1344 3.59689 68.8905C3.00951 70.6467 17.7456 72.3758 17.5779 73.3672C17.4128 74.3628 4.86177 71.6817 4.91477 74.1033C4.96777 76.5249 16.8502 75.6478 16.952 76.489C17.0539 77.3302 8.45152 76.8654 8.44469 78.4562C8.43785 80.047 24.0529 81.5461 30.9361 77.6317C30.9361 77.6317 34.7678 78.7216 35.4819 77.1716C36.196 75.6215 36.9713 71.4112 36.9713 71.4112L36.9732 71.4045Z" fill="#F8A38E"/>
<path d="M265.501 96.044C265.501 96.044 265.432 94.8016 267.744 93.4896C270.055 92.1776 285.714 82.5047 286.191 85.6094C286.191 85.6094 286.525 86.4283 279.681 89.974C279.681 89.974 277.788 91.5634 281.087 91.0824C284.385 90.6013 296.154 87.839 296.604 89.8848C297.053 91.9306 283.891 93.2579 284.084 94.3266C284.278 95.3953 298.429 92.893 298.951 94.6696C299.473 96.4462 284.68 97.6658 284.81 98.6664C284.941 99.667 297.582 97.417 297.436 99.8371C297.29 102.257 285.445 100.976 285.314 101.812C285.184 102.648 293.8 102.478 293.741 104.068C293.683 105.658 278.031 106.623 271.295 102.475C271.295 102.475 267.424 103.435 266.766 101.86C266.109 100.284 265.499 96.0535 265.499 96.0535L265.501 96.044Z" fill="#F8A38E"/>
<path d="M272.523 99.0635C273.459 95.4476 271.911 94.2883 267.654 92.979L232.374 82.4927C228.221 81.5598 225.909 84.4805 224.972 88.0965C224.036 91.7125 225.359 96.0929 229.513 97.0258L265.723 102.216C270.235 102.696 271.586 102.68 272.523 99.0635Z" fill="#F8A38E"/>
<path d="M234.591 93.1948C234.591 93.1948 266.531 100.376 267.112 101.392C267.693 102.407 265.733 102.229 265.733 102.229L229.547 97.0536L234.591 93.1948Z" fill="#F6927F"/>
<path d="M232.812 86.925L271.447 94.2358L232.368 82.4825C232.368 82.4825 230.122 81.6121 227.782 83.1038C227.782 83.1038 225.442 84.5955 227.782 83.1038L232.812 86.925Z" fill="#F9B5A9"/>
<path d="M29.6323 72.3795C30.1509 68.6707 32.0336 68.1471 36.5024 68.4557L73.3645 71.3804C77.5886 72.0069 78.6231 75.5629 78.1019 79.2675C77.5833 82.9764 74.6695 86.5801 70.441 85.9561L34.7484 77.7587C30.3659 76.5812 29.1155 76.0817 29.634 72.3729L29.6323 72.3795Z" fill="#F8A38E"/>
<path d="M68.4595 82.3644C68.4595 82.3644 34.6671 75.7574 33.7385 76.4995C32.8099 77.2416 34.7004 77.7789 34.7004 77.7789L70.7148 86.0105L68.4621 82.3686L68.4595 82.3644Z" fill="#F6927F"/>
<path d="M203.596 71.5329L234.343 82.9213C234.343 82.9213 237.748 86.196 235.806 91.7491C233.865 97.3022 229.156 97.0042 229.156 97.0042L199.839 86.2498L203.596 71.5329Z" fill="#F8A38E"/>
<path d="M203.899 81.474L234.067 94.9164C234.067 94.9164 231.793 97.9548 229.197 97.0034C226.601 96.0521 200.902 86.6164 200.902 86.6164L203.899 81.474Z" fill="#F6927F"/>
<path d="M207.142 77.5233L236.389 89.0062L236.474 88.2378C236.43 86.7283 235.573 84.1569 234.442 83.0067L234.058 82.8042L207.837 73.3908L207.142 77.5233Z" fill="#F9B5A9"/>
<path d="M175.794 71.2031C176.685 75.4028 179.321 78.1081 182.411 79.2243L203.918 89.0316L207.306 86.4465L212.94 71.8917L191.116 62.2912L189.888 61.7028L189.877 61.6934C183.989 59.3567 176.306 62.7795 175.794 71.2031Z" fill="#E9F5F1"/>
<path d="M248.526 21.9769L249.756 22.5664C249.355 22.3403 248.948 22.1423 248.526 21.9769Z" fill="white"/>
<path d="M175.804 71.1673L177.792 73.1936C180.195 75.6424 183.148 77.5384 186.432 78.7443L207.354 86.4311L203.962 89.0201L180.936 78.5091C180.936 78.5091 176.006 75.1857 175.8 71.1642L175.804 71.1673Z" fill="#C7E5DA"/>
<path d="M176.678 67.7902C176.678 67.7902 182.043 62.8697 185.454 63.3843C188.865 63.899 212.053 74.1762 212.053 74.1762L212.932 71.8962L189.86 61.6992C189.86 61.6992 180.443 58.5352 176.678 67.7902Z" fill="#F5FBF8"/>
<path d="M280.021 97.3619C269.441 98.1743 197.696 103.211 153.054 103.211C119.008 103.211 76.7713 91.7564 25.8308 71.2842" stroke="#FF6464" stroke-width="25" stroke-linecap="round"/>
</svg>
